<svg width="26" height="24" viewBox="0 0 26 24" fill="none" xmlns="http://www.w3.org/2000/svg">
<path d="M25.987 7.90825L24.8966 13.9209C24.7622 14.5851 24.2116 14.989 23.5768 14.9966H7.68083L7.36524 16.7066H22.5151C23.3129 16.7649 23.854 17.3081 23.8637 18.0029C23.8057 18.7681 23.2406 19.2897 22.5151 19.2992H5.75841C4.85216 19.2209 4.31177 18.5265 4.40984 17.7547L5.12716 14.0036L4.03682 3.46763L0.937991 2.52993C0.180719 2.24091 -0.128356 1.5824 0.0485094 0.902647C0.342591 0.194214 1.04726 -0.12946 1.74139 0.0476326L5.70102 1.26121C6.23445 1.45342 6.54132 1.87315 6.61919 2.36446L6.84872 4.46062L24.8105 6.39129C25.6358 6.56313 26.0839 7.19151 25.987 7.90825ZM9.86423 22.0211C9.86423 23.114 8.94253 24 7.8055 24C6.6685 24 5.7468 23.114 5.7468 22.0211C5.7468 20.9281 6.66852 20.0421 7.8055 20.0421C8.9425 20.0421 9.86423 20.9282 9.86423 22.0211ZM22.1547 22.0211C22.1547 23.114 21.233 24 20.0959 24C18.9589 24 18.0372 23.114 18.0372 22.0211C18.0372 20.9281 18.9589 20.0421 20.0959 20.0421C21.233 20.0421 22.1547 20.9282 22.1547 22.0211Z" fill="#2E8BCA"/>
</svg>
